<svg width="253" height="54" fill="none" xmlns="http://www.w3.org/2000/svg"><mask id="a" style="mask-type:luminance" maskUnits="userSpaceOnUse" x="61" y="8" width="192" height="29"><path d="M99.67 17.726v8.446c0 4.153-2.657 7.244-6.626 7.318-3.317 0-4.993-2.218-4.993-5.642V17.726h-2.842v10.852c0 4.625 2.694 7.466 7.175 7.466 3.46-.033 5.583-1.054 7.285-2.668v2.557h2.842V17.726H99.67zm30.456-1.132v19.232h2.41c.092 0 .185-.014.31-.022v-19.21h-2.72zm-65.708 10.65c-.265-2.484.31-4.724 2.23-6.412 2.126-1.872 4.636-2.181 7.245-1.245 2.524.91 3.862 2.852 4.267 5.464.066.406.085.818.118 1.169 0 .025 0 .047-.004.07v.073c-.136 2.834-1.153 5.122-3.777 6.401a7.4 7.4 0 01-3.236.74c-3.231 0-6.404-2.1-6.846-6.264m5.52-10.594c-2.347.273-4.396 1.179-6 2.948-1.96 2.163-2.594 4.772-2.38 7.613.173 2.281.973 4.315 2.587 5.974 2.937 3.018 8.21 3.766 12.061 1.676a9.759 9.759 0 002.064-1.481v2.502h2.83v-9.673c-.037-.453-.052-.977-.125-1.489-.406-2.952-1.806-5.277-4.4-6.799-1.614-.947-3.346-1.356-5.152-1.356-.49 0-.988.03-1.489.088M179.174 27.03c-.265-2.483.31-4.724 2.23-6.412 2.13-1.872 4.635-2.181 7.244-1.245 2.525.91 3.859 2.856 4.268 5.468.062.406.084.818.118 1.168-.107 2.9-1.117 5.244-3.785 6.549a7.396 7.396 0 01-3.235.74c-3.232 0-6.405-2.1-6.847-6.264m5.52-10.595c-2.347.273-4.396 1.18-5.999 2.948-1.961 2.167-2.594 4.769-2.381 7.614.173 2.28.977 4.315 2.587 5.973 2.933 3.018 8.21 3.766 12.061 1.677 3.387-1.839 4.787-4.846 4.894-8.649-.037-.453-.052-.976-.125-1.492-.406-2.952-1.806-5.281-4.4-6.8-1.614-.946-3.346-1.355-5.152-1.355-.49 0-.987.03-1.489.088m54.889 5.119c-.033 6.773 10.709 4.407 10.602 9.069-.037 1.927-1.861 2.804-4.116 2.804-2.256 0-4.736-.91-6.372-2.44l-1.091 2.075c1.821 1.75 4.625 2.697 7.356 2.697 3.677 0 7.031-1.676 7.031-5.428 0-6.883-10.709-4.661-10.709-8.995 0-1.82 1.64-2.587 3.788-2.587 1.784 0 3.715.583 5.207 1.53l1.091-2.186c-1.603-1.057-3.825-1.75-6.117-1.75-3.497 0-6.666 1.566-6.666 5.207m-100.687 5.446c-.25-2.428.303-4.628 2.152-6.308 2.134-1.935 4.662-2.267 7.312-1.323 2.546.906 3.887 2.867 4.289 5.502.059.405.081.818.114 1.15-.107 2.844-1.08 5.144-3.641 6.467a7.37 7.37 0 01-3.375.81c-3.239 0-6.423-2.111-6.854-6.298m5.535-10.568c-2.366.272-4.426 1.19-6.033 2.977-1.938 2.16-2.568 4.754-2.355 7.58.177 2.366 1.032 4.46 2.749 6.143 1.666 1.633 3.708 2.447 6.007 2.631 2.664.21 5.152-.324 7.278-2.015 2.473-1.968 3.46-4.632 3.501-7.912-.026-.32-.044-.83-.114-1.327-.413-2.988-1.832-5.332-4.478-6.85-1.595-.914-3.302-1.312-5.081-1.312-.487 0-.981.03-1.478.088m84.115 2.318c3.806 0 6.323 2.44 6.507 6.21h-13.31c.405-3.77 2.992-6.21 6.803-6.21zm-9.652 7.43c0 5.803 3.955 9.835 9.688 9.835 3.254 0 5.992-1.183 7.839-3.217l-1.589-1.666c-1.514 1.592-3.622 2.476-6.025 2.476-3.806 0-6.581-2.513-7.06-6.356h15.897c.295-6.582-2.808-10.908-9.095-10.908-5.656.037-9.651 4.031-9.651 9.835m-61.551-.228c0 5.708 3.925 9.67 9.485 9.67 3.309 0 5.963-1.235 7.669-3.31l-1.636-1.673c-1.345 1.6-3.416 2.473-5.926 2.473-3.965 0-6.799-2.944-6.799-7.16s2.838-7.123 6.799-7.123c2.325 0 4.253.836 5.705 2.251l1.562-1.964c-1.747-1.78-4.289-2.834-7.377-2.834-5.524 0-9.486 3.962-9.486 9.67M129.57 11.004c0 1.153.722 1.927 1.809 1.931 1.109.007 1.88-.785 1.88-1.927 0-1.113-.778-1.939-1.832-1.95h-.022c-1.08 0-1.839.8-1.839 1.95M108.245 27.04c-.266-2.483.313-4.724 2.229-6.412 2.126-1.872 4.636-2.181 7.245-1.245 2.524.91 3.862 2.852 4.267 5.465.059.376.081.755.111 1.09v.222c-.137 2.833-1.157 5.122-3.778 6.404a7.392 7.392 0 01-3.231.74c-3.232 0-6.405-2.1-6.847-6.264m13.856-18.51v10.44a9.442 9.442 0 00-1.692-1.26c-2.052-1.202-4.297-1.54-6.644-1.268-2.347.273-4.396 1.18-5.995 2.948-1.961 2.163-2.595 4.769-2.381 7.617.173 2.281.973 4.315 2.587 5.974 2.933 3.018 8.21 3.766 12.061 1.676a9.644 9.644 0 002.064-1.485v2.502h2.83V8.517h-2.83v.014zm78.134 18.51c-.262-2.483.313-4.724 2.229-6.412 2.126-1.872 4.636-2.181 7.245-1.245 2.524.91 3.862 2.852 4.271 5.465.059.376.081.755.11 1.09v.222c-.136 2.833-1.153 5.122-3.777 6.404a7.396 7.396 0 01-3.235.74c-3.232 0-6.405-2.1-6.847-6.264m13.859-18.51v10.44a9.434 9.434 0 00-1.691-1.26c-2.053-1.202-4.297-1.54-6.641-1.268-2.347.273-4.396 1.18-5.999 2.948-1.96 2.163-2.594 4.769-2.38 7.617.173 2.281.972 4.315 2.587 5.974 2.933 3.018 8.21 3.766 12.061 1.676a9.637 9.637 0 002.063-1.485v2.502h2.83V8.517h-2.83v.014z" fill="#fff"/></mask><g mask="url(#a)"><path d="M252.997 8.517H61.35v28.43h191.647V8.517z" fill="url(#paint0_linear_999_820)"/></g><mask id="b" style="mask-type:luminance" maskUnits="userSpaceOnUse" x="31" y="9" width="27" height="35"><path d="M41.354 35.251s-.051 2.06.564 4.503c.505 1.997 1.467 3.925 1.467 3.925s10.03.582 14.364-7.485l-6.619-4.418s-2.608 5.852-9.772 3.475m-9.983-21.672c.1.081 3.56 3.007 5.034 8.944.792-3.1 3.946-5.012 7.418-5.012 5.221 0 7.027 3.648 7.027 3.648l6.464-4.772c-3.999-6.242-9.98-7.23-13.318-7.23-8.188 0-12.588 4.385-12.621 4.419" fill="#fff"/></mask><g mask="url(#b)"><path d="M54.046-.003L19.182 14.083 35.075 53.42l34.864-14.086L54.046-.003z" fill="url(#paint1_linear_999_820)"/></g><mask id="c" style="mask-type:luminance" maskUnits="userSpaceOnUse" x="0" y="9" width="43" height="35"><path d="M0 27.236c0 15.882 18.89 20.953 29.952 12.33-2.38-2.61-3.91-5.657-4.525-9.165-2.768 7.256-11.94 7.267-14.652 1.662-2.841-5.87-1.083-14.173 7.112-14.173 5.797 0 8.023 4.467 8.023 8.325 0 9.415 6.419 17.478 16.136 17.478-.398-1.08-1.006-2.432-1.37-4.241-.45-2.222-.406-4.36-.406-4.426-3.15-1.588-4.488-5.318-4.488-8.387 0-9.511-7.418-17.21-17.832-17.21C7.536 9.43 0 14.984 0 27.237z" fill="#fff"/></mask><g mask="url(#c)"><path d="M42.043 9.426H0v38.763h42.043V9.426z" fill="url(#paint2_linear_999_820)"/></g><defs><linearGradient id="paint0_linear_999_820" x1="63.378" y1="20.473" x2="255.645" y2="20.473" gradientUnits="userSpaceOnUse"><stop stop-color="#124680"/><stop offset=".45" stop-color="#11447D"/><stop offset=".68" stop-color="#0D3E74"/><stop offset=".77" stop-color="#0D396C"/><stop offset=".9" stop-color="#0D2D59"/><stop offset="1" stop-color="#0E2146"/></linearGradient><linearGradient id="paint1_linear_999_820" x1="37.983" y1="28.633" x2="59.487" y2="19.945" gradientUnits="userSpaceOnUse"><stop stop-color="#00CCED"/><stop offset="1" stop-color="#33A3DC"/></linearGradient><linearGradient id="paint2_linear_999_820" x1="-.791" y1="29.764" x2="41.251" y2="29.764" gradientUnits="userSpaceOnUse"><stop stop-color="#124680"/><stop offset=".61" stop-color="#0D3E74"/><stop offset="1" stop-color="#0E2146"/></linearGradient></defs></svg>